<?xml version="1.0" encoding="UTF-8"?>
<!DOCTYPE svg PUBLIC "-//W3C//DTD SVG 1.1//EN" "http://www.w3.org/Graphics/SVG/1.1/DTD/svg11.dtd">
<svg xmlns="http://www.w3.org/2000/svg" version="1.1" width="71px" height="70px" style="shape-rendering:geometricPrecision; text-rendering:geometricPrecision; image-rendering:optimizeQuality; fill-rule:evenodd; clip-rule:evenodd" xmlns:xlink="http://www.w3.org/1999/xlink">
<g><path style="opacity:0.425" fill="#fe2a18" d="M 42.5,4.5 C 42.5,5.16667 42.5,5.83333 42.5,6.5C 40.1044,3.85318 37.7711,3.85318 35.5,6.5C 34.8333,6.5 34.1667,6.5 33.5,6.5C 33.189,5.52216 32.5223,4.85549 31.5,4.5C 29.8045,5.17444 28.1379,5.8411 26.5,6.5C 26.5,6.16667 26.5,5.83333 26.5,5.5C 27.8439,3.96522 29.5106,2.63189 31.5,1.5C 35.2369,2.30722 38.9035,3.30722 42.5,4.5 Z"/></g>
<g><path style="opacity:0.374" fill="#fe1f12" d="M 26.5,5.5 C 26.5,5.83333 26.5,6.16667 26.5,6.5C 23.4333,6.78933 21.4333,8.456 20.5,11.5C 18.5168,11.1568 17.1834,11.8235 16.5,13.5C 16.5,14.1667 16.1667,14.5 15.5,14.5C 15.5,13.8333 15.5,13.1667 15.5,12.5C 17.2961,10.5832 19.2961,8.74986 21.5,7C 23.0249,5.99136 24.6916,5.49136 26.5,5.5 Z"/></g>
<g><path style="opacity:1" fill="#f5c590" d="M 42.5,6.5 C 44.6616,7.12763 46.3282,8.46096 47.5,10.5C 46.5041,10.4142 45.6708,10.7476 45,11.5C 42.6305,9.88288 39.9638,8.88288 37,8.5C 35.9701,8.16389 35.4701,7.49722 35.5,6.5C 37.7711,3.85318 40.1044,3.85318 42.5,6.5 Z"/></g>
<g><path style="opacity:0.176" fill="#fd1d0e" d="M 42.5,4.5 C 45.7798,6.44321 48.7798,8.77655 51.5,11.5C 51.5,11.8333 51.5,12.1667 51.5,12.5C 49.9382,12.2671 48.6049,11.6005 47.5,10.5C 46.3282,8.46096 44.6616,7.12763 42.5,6.5C 42.5,5.83333 42.5,5.16667 42.5,4.5 Z"/></g>
<g><path style="opacity:1" fill="#cb854d" d="M 30.5,7.5 C 31.209,6.59603 32.209,6.26269 33.5,6.5C 34.1667,6.5 34.8333,6.5 35.5,6.5C 35.4701,7.49722 35.9701,8.16389 37,8.5C 39.9638,8.88288 42.6305,9.88288 45,11.5C 45.6708,10.7476 46.5041,10.4142 47.5,10.5C 48.6049,11.6005 49.9382,12.2671 51.5,12.5C 53.047,13.7682 54.047,15.4348 54.5,17.5C 53.8333,19.5 53.1667,21.5 52.5,23.5C 52.7845,21.5853 52.4511,19.9187 51.5,18.5C 51.2144,16.0673 50.5477,16.0673 49.5,18.5C 49.5,19.1667 49.5,19.8333 49.5,20.5C 47.7801,19.2493 47.4468,17.7493 48.5,16C 47.3094,15.3021 46.3094,14.4687 45.5,13.5C 43.8984,11.9261 41.8984,11.2594 39.5,11.5C 37.3158,9.04311 34.9825,9.04311 32.5,11.5C 31.2089,10.4583 31.2089,9.29167 32.5,8C 31.9056,7.53566 31.2389,7.36899 30.5,7.5 Z"/></g>
<g><path style="opacity:1" fill="#b7652b" d="M 28.5,7.5 C 29.1667,7.5 29.8333,7.5 30.5,7.5C 31.2389,7.36899 31.9056,7.53566 32.5,8C 31.2089,9.29167 31.2089,10.4583 32.5,11.5C 32.5,11.8333 32.5,12.1667 32.5,12.5C 30.5,12.8333 28.5,13.1667 26.5,13.5C 26.3433,12.1266 26.51,10.7932 27,9.5C 29.0932,10.234 29.5932,9.5673 28.5,7.5 Z"/></g>
<g><path style="opacity:1" fill="#f8c694" d="M 33.5,6.5 C 32.209,6.26269 31.209,6.59603 30.5,7.5C 29.8333,7.5 29.1667,7.5 28.5,7.5C 25.4496,8.27561 23.1163,9.94228 21.5,12.5C 20.8333,12.5 20.5,12.1667 20.5,11.5C 21.4333,8.456 23.4333,6.78933 26.5,6.5C 28.1379,5.8411 29.8045,5.17444 31.5,4.5C 32.5223,4.85549 33.189,5.52216 33.5,6.5 Z"/></g>
<g><path style="opacity:1" fill="#7a3717" d="M 39.5,11.5 C 39.5,11.8333 39.5,12.1667 39.5,12.5C 37.2151,13.5463 34.8817,13.5463 32.5,12.5C 32.5,12.1667 32.5,11.8333 32.5,11.5C 34.9825,9.04311 37.3158,9.04311 39.5,11.5 Z"/></g>
<g><path style="opacity:1" fill="#763513" d="M 39.5,12.5 C 39.5,12.1667 39.5,11.8333 39.5,11.5C 41.8984,11.2594 43.8984,11.9261 45.5,13.5C 45.4828,15.5648 45.1495,17.5648 44.5,19.5C 43.6618,19.1583 43.3284,18.4916 43.5,17.5C 44.2436,14.0504 42.9103,12.3838 39.5,12.5 Z"/></g>
<g><path style="opacity:1" fill="#ce864b" d="M 28.5,7.5 C 29.5932,9.5673 29.0932,10.234 27,9.5C 26.51,10.7932 26.3433,12.1266 26.5,13.5C 25.7638,15.2294 24.4305,16.2294 22.5,16.5C 21.7659,15.2921 21.4326,13.9587 21.5,12.5C 23.1163,9.94228 25.4496,8.27561 28.5,7.5 Z"/></g>
<g><path style="opacity:1" fill="#2d0a03" d="M 32.5,12.5 C 34.8817,13.5463 37.2151,13.5463 39.5,12.5C 42.9103,12.3838 44.2436,14.0504 43.5,17.5C 41.8333,17.5 40.1667,17.5 38.5,17.5C 38.5,16.8333 38.1667,16.5 37.5,16.5C 35.6309,15.8354 33.6309,15.1687 31.5,14.5C 31.8627,13.8165 32.1961,13.1499 32.5,12.5 Z"/></g>
<g><path style="opacity:1" fill="#dca068" d="M 20.5,11.5 C 20.5,12.1667 20.8333,12.5 21.5,12.5C 21.4326,13.9587 21.7659,15.2921 22.5,16.5C 21.4706,18.5168 20.4706,20.5168 19.5,22.5C 19.133,20.5445 18.7996,18.5445 18.5,16.5C 19.5983,15.3991 19.765,14.0657 19,12.5C 18.6174,13.056 18.1174,13.3893 17.5,13.5C 17.1667,13.5 16.8333,13.5 16.5,13.5C 17.1834,11.8235 18.5168,11.1568 20.5,11.5 Z"/></g>
<g><path style="opacity:1" fill="#602711" d="M 32.5,12.5 C 32.1961,13.1499 31.8627,13.8165 31.5,14.5C 33.6309,15.1687 35.6309,15.8354 37.5,16.5C 35.5853,16.2155 33.9187,16.5489 32.5,17.5C 31.8333,18.1667 31.1667,18.8333 30.5,19.5C 29.1214,17.4031 27.4547,17.0698 25.5,18.5C 23.5,19.8333 21.5,21.1667 19.5,22.5C 20.4706,20.5168 21.4706,18.5168 22.5,16.5C 24.4305,16.2294 25.7638,15.2294 26.5,13.5C 28.5,13.1667 30.5,12.8333 32.5,12.5 Z"/></g>
<g><path style="opacity:1" fill="#9b5426" d="M 45.5,13.5 C 46.3094,14.4687 47.3094,15.3021 48.5,16C 47.4468,17.7493 47.7801,19.2493 49.5,20.5C 49.631,21.2389 49.4643,21.9056 49,22.5C 47.3853,21.6138 45.8853,20.6138 44.5,19.5C 45.1495,17.5648 45.4828,15.5648 45.5,13.5 Z"/></g>
<g><path style="opacity:0.675" fill="#fe0c05" d="M 51.5,12.5 C 51.5,12.1667 51.5,11.8333 51.5,11.5C 52.4959,11.4142 53.3292,11.7476 54,12.5C 55.9187,16.2544 58.4187,19.5877 61.5,22.5C 61.5,22.8333 61.5,23.1667 61.5,23.5C 59.1667,21.5 56.8333,19.5 54.5,17.5C 54.047,15.4348 53.047,13.7682 51.5,12.5 Z"/></g>
<g><path style="opacity:1" fill="#2a2e33" d="M 30.5,19.5 C 29.7777,20.5511 28.7777,21.2178 27.5,21.5C 26.5084,21.6716 25.8417,21.3382 25.5,20.5C 25.5,19.8333 25.5,19.1667 25.5,18.5C 27.4547,17.0698 29.1214,17.4031 30.5,19.5 Z"/></g>
<g><path style="opacity:1" fill="#211f21" d="M 38.5,17.5 C 40.1667,17.5 41.8333,17.5 43.5,17.5C 43.3284,18.4916 43.6618,19.1583 44.5,19.5C 44.0269,20.9063 43.0269,21.573 41.5,21.5C 41.1667,21.5 40.8333,21.5 40.5,21.5C 40.1667,21.5 39.8333,21.5 39.5,21.5C 38.7659,20.2921 38.4326,18.9587 38.5,17.5 Z"/></g>
<g><path style="opacity:1" fill="#d79d69" d="M 32.5,17.5 C 33.9187,16.5489 35.5853,16.2155 37.5,16.5C 38.1667,16.5 38.5,16.8333 38.5,17.5C 38.4326,18.9587 38.7659,20.2921 39.5,21.5C 38.1667,21.5 36.8333,21.5 35.5,21.5C 33.0233,20.88 33.0233,19.88 35.5,18.5C 34.675,17.6143 33.675,17.281 32.5,17.5 Z"/></g>
<g><path style="opacity:1" fill="#532210" d="M 18.5,16.5 C 18.7996,18.5445 19.133,20.5445 19.5,22.5C 21.5,21.1667 23.5,19.8333 25.5,18.5C 25.5,19.1667 25.5,19.8333 25.5,20.5C 24.0382,22.2549 22.2049,23.5882 20,24.5C 19.5172,25.448 19.3505,26.448 19.5,27.5C 18.8902,28.391 18.5569,29.391 18.5,30.5C 17.1667,25.8333 17.1667,21.1667 18.5,16.5 Z"/></g>
<g><path style="opacity:1" fill="#f5daab" d="M 32.5,17.5 C 33.675,17.281 34.675,17.6143 35.5,18.5C 33.0233,19.88 33.0233,20.88 35.5,21.5C 33.0122,23.3878 30.0122,24.0545 26.5,23.5C 26.0618,23.5654 25.7284,23.3988 25.5,23C 26.4158,22.7216 27.0825,22.2216 27.5,21.5C 28.7777,21.2178 29.7777,20.5511 30.5,19.5C 31.1667,18.8333 31.8333,18.1667 32.5,17.5 Z"/></g>
<g><path style="opacity:1" fill="#68381d" d="M 49.5,18.5 C 50.7416,20.3888 50.7416,22.3888 49.5,24.5C 47.2986,23.4336 44.9653,22.767 42.5,22.5C 41.8333,22.5 41.5,22.1667 41.5,21.5C 43.0269,21.573 44.0269,20.9063 44.5,19.5C 45.8853,20.6138 47.3853,21.6138 49,22.5C 49.4643,21.9056 49.631,21.2389 49.5,20.5C 49.5,19.8333 49.5,19.1667 49.5,18.5 Z"/></g>
<g><path style="opacity:0.498" fill="#fe1606" d="M 15.5,12.5 C 15.5,13.1667 15.5,13.8333 15.5,14.5C 15.6085,16.5138 14.9418,18.1805 13.5,19.5C 9.57592,21.7516 7.24258,25.085 6.5,29.5C 5.29099,27.5654 5.45766,25.5654 7,23.5C 10.9122,20.4513 13.7455,16.7847 15.5,12.5 Z"/></g>
<g><path style="opacity:1" fill="#d1a87b" d="M 25.5,20.5 C 25.8417,21.3382 26.5084,21.6716 27.5,21.5C 27.0825,22.2216 26.4158,22.7216 25.5,23C 25.7284,23.3988 26.0618,23.5654 26.5,23.5C 26.1667,24.5 25.5,25.1667 24.5,25.5C 24.2648,24.9033 23.7648,24.5699 23,24.5C 21.8261,25.5442 20.6594,26.5442 19.5,27.5C 19.3505,26.448 19.5172,25.448 20,24.5C 22.2049,23.5882 24.0382,22.2549 25.5,20.5 Z"/></g>
<g><path style="opacity:1" fill="#e9a158" d="M 54.5,17.5 C 56.8333,19.5 59.1667,21.5 61.5,23.5C 64.4843,26.6969 64.1509,29.3636 60.5,31.5C 60.755,28.01 59.4217,25.3433 56.5,23.5C 55.4519,25.8129 54.7852,27.8129 54.5,29.5C 52.7202,28.0101 52.0535,26.0101 52.5,23.5C 53.1667,21.5 53.8333,19.5 54.5,17.5 Z"/></g>
<g><path style="opacity:1" fill="#bd672a" d="M 13.5,22.5 C 14.2502,24.9302 14.5835,27.2635 14.5,29.5C 13.1283,30.5116 11.795,31.5116 10.5,32.5C 9.5,32.1667 8.83333,31.5 8.5,30.5C 9.30912,28.7078 9.80912,26.7078 10,24.5C 11.5961,25.0485 12.7627,24.3818 13.5,22.5 Z"/></g>
<g><path style="opacity:1" fill="#facc87" d="M 16.5,13.5 C 16.8333,13.5 17.1667,13.5 17.5,13.5C 16.7724,18.4512 16.2724,23.4512 16,28.5C 15.9977,25.9488 15.1644,23.9488 13.5,22.5C 13.5,21.5 13.5,20.5 13.5,19.5C 14.9418,18.1805 15.6085,16.5138 15.5,14.5C 16.1667,14.5 16.5,14.1667 16.5,13.5 Z"/></g>
<g><path style="opacity:1" fill="#c17b4b" d="M 33.5,25.5 C 31.901,25.2322 30.5676,25.5655 29.5,26.5C 28.6618,26.8417 28.3284,27.5084 28.5,28.5C 28.6287,30.2161 28.962,31.8828 29.5,33.5C 28.8333,33.1667 28.1667,32.8333 27.5,32.5C 27.5,30.8333 27.5,29.1667 27.5,27.5C 26.4019,26.603 26.4019,25.7697 27.5,25C 29.7116,24.2109 31.7116,24.3775 33.5,25.5 Z"/></g>
<g><path style="opacity:1" fill="#8e5c3a" d="M 42.5,22.5 C 44.9653,22.767 47.2986,23.4336 49.5,24.5C 50.4682,26.6074 50.8016,28.9407 50.5,31.5C 50.5,31.8333 50.5,32.1667 50.5,32.5C 50.1667,32.5 49.8333,32.5 49.5,32.5C 49.851,29.1884 48.5177,26.855 45.5,25.5C 44.3065,24.7281 43.3065,23.7281 42.5,22.5 Z"/></g>
<g><path style="opacity:1" fill="#210c05" d="M 51.5,18.5 C 51.2338,22.5705 51.5672,26.5705 52.5,30.5C 52.0431,31.2975 51.3764,31.6309 50.5,31.5C 50.8016,28.9407 50.4682,26.6074 49.5,24.5C 50.7416,22.3888 50.7416,20.3888 49.5,18.5C 50.5477,16.0673 51.2144,16.0673 51.5,18.5 Z"/></g>
<g><path style="opacity:1" fill="#b6672c" d="M 60.5,31.5 C 59.8333,33.5 58.5,34.8333 56.5,35.5C 54.9254,33.8863 54.2587,31.8863 54.5,29.5C 54.7852,27.8129 55.4519,25.8129 56.5,23.5C 59.4217,25.3433 60.755,28.01 60.5,31.5 Z"/></g>
<g><path style="opacity:1" fill="#efb174" d="M 35.5,21.5 C 36.8333,21.5 38.1667,21.5 39.5,21.5C 39.8333,21.5 40.1667,21.5 40.5,21.5C 39.791,22.404 38.791,22.7373 37.5,22.5C 37.7373,23.791 37.404,24.791 36.5,25.5C 35.5,25.5 34.5,25.5 33.5,25.5C 31.7116,24.3775 29.7116,24.2109 27.5,25C 26.4019,25.7697 26.4019,26.603 27.5,27.5C 26.1667,28.1667 24.8333,28.8333 23.5,29.5C 24.3284,27.9251 24.6618,26.5918 24.5,25.5C 25.5,25.1667 26.1667,24.5 26.5,23.5C 30.0122,24.0545 33.0122,23.3878 35.5,21.5 Z"/></g>
<g><path style="opacity:1" fill="#3d434d" d="M 29.5,26.5 C 30.5676,25.5655 31.901,25.2322 33.5,25.5C 34.5,25.5 35.5,25.5 36.5,25.5C 36.8417,26.3382 37.5084,26.6716 38.5,26.5C 38.5,26.8333 38.5,27.1667 38.5,27.5C 38.5,28.1667 38.5,28.8333 38.5,29.5C 38.1667,29.5 37.8333,29.5 37.5,29.5C 35.7354,28.5386 33.7354,28.2053 31.5,28.5C 31.5,27.1667 30.8333,26.5 29.5,26.5 Z"/></g>
<g><path style="opacity:1" fill="#d58d50" d="M 40.5,21.5 C 40.8333,21.5 41.1667,21.5 41.5,21.5C 41.5,22.1667 41.8333,22.5 42.5,22.5C 43.3065,23.7281 44.3065,24.7281 45.5,25.5C 45.5,26.8333 45.5,28.1667 45.5,29.5C 43.3131,28.242 40.9798,27.242 38.5,26.5C 37.5084,26.6716 36.8417,26.3382 36.5,25.5C 37.404,24.791 37.7373,23.791 37.5,22.5C 38.791,22.7373 39.791,22.404 40.5,21.5 Z"/></g>
<g><path style="opacity:1" fill="#9a9ca0" d="M 29.5,26.5 C 30.8333,26.5 31.5,27.1667 31.5,28.5C 30.5,28.5 29.5,28.5 28.5,28.5C 28.3284,27.5084 28.6618,26.8417 29.5,26.5 Z"/></g>
<g><path style="opacity:1" fill="#ed9c56" d="M 13.5,19.5 C 13.5,20.5 13.5,21.5 13.5,22.5C 12.7627,24.3818 11.5961,25.0485 10,24.5C 9.80912,26.7078 9.30912,28.7078 8.5,30.5C 7.83333,30.1667 7.16667,29.8333 6.5,29.5C 7.24258,25.085 9.57592,21.7516 13.5,19.5 Z"/></g>
<g><path style="opacity:1" fill="#fceebe" d="M 24.5,25.5 C 24.6618,26.5918 24.3284,27.9251 23.5,29.5C 22.3995,30.6049 21.7329,31.9382 21.5,33.5C 20.6851,34.4293 19.8518,35.4293 19,36.5C 18.5045,34.5273 18.3379,32.5273 18.5,30.5C 18.5569,29.391 18.8902,28.391 19.5,27.5C 20.6594,26.5442 21.8261,25.5442 23,24.5C 23.7648,24.5699 24.2648,24.9033 24.5,25.5 Z"/></g>
<g><path style="opacity:1" fill="#1a1717" d="M 28.5,28.5 C 29.5,28.5 30.5,28.5 31.5,28.5C 33.7354,28.2053 35.7354,28.5386 37.5,29.5C 34.1884,29.149 31.855,30.4823 30.5,33.5C 30.1667,33.5 29.8333,33.5 29.5,33.5C 28.962,31.8828 28.6287,30.2161 28.5,28.5 Z"/></g>
<g><path style="opacity:1" fill="#120606" d="M 37.5,29.5 C 37.8333,29.5 38.1667,29.5 38.5,29.5C 38.4431,30.609 38.1098,31.609 37.5,32.5C 35.9783,33.4312 34.6449,34.5979 33.5,36C 33.5699,36.7648 33.9033,37.2648 34.5,37.5C 34.5,38.1667 34.5,38.8333 34.5,39.5C 33.1667,39.5 32.5,38.8333 32.5,37.5C 32.5,36.8333 32.5,36.1667 32.5,35.5C 32.1667,34.5 31.5,33.8333 30.5,33.5C 31.855,30.4823 34.1884,29.149 37.5,29.5 Z"/></g>
<g><path style="opacity:1" fill="#ab683a" d="M 38.5,27.5 C 38.5,27.1667 38.5,26.8333 38.5,26.5C 40.9798,27.242 43.3131,28.242 45.5,29.5C 45.5,30.1667 45.5,30.8333 45.5,31.5C 44.1751,30.0474 43.3418,30.3808 43,32.5C 40.9782,31.1982 39.4782,29.5315 38.5,27.5 Z"/></g>
<g><path style="opacity:1" fill="#c0733e" d="M 27.5,27.5 C 27.5,29.1667 27.5,30.8333 27.5,32.5C 26.209,32.2627 25.209,32.596 24.5,33.5C 23.5,33.5 22.5,33.5 21.5,33.5C 21.7329,31.9382 22.3995,30.6049 23.5,29.5C 24.8333,28.8333 26.1667,28.1667 27.5,27.5 Z"/></g>
<g><path style="opacity:1" fill="#eea253" d="M 14.5,29.5 C 14.4142,30.4959 14.7476,31.3292 15.5,32C 14.5838,32.3742 13.7504,32.8742 13,33.5C 12.9378,35.1147 12.7711,36.4481 12.5,37.5C 11.0687,36.2196 10.4021,34.5529 10.5,32.5C 11.795,31.5116 13.1283,30.5116 14.5,29.5 Z"/></g>
<g><path style="opacity:1" fill="#d48941" d="M 18.5,16.5 C 17.1667,21.1667 17.1667,25.8333 18.5,30.5C 18.3379,32.5273 18.5045,34.5273 19,36.5C 19.8518,35.4293 20.6851,34.4293 21.5,33.5C 21.5,34.8333 21.5,36.1667 21.5,37.5C 20.8333,38.8333 20.1667,40.1667 19.5,41.5C 19.3404,39.847 18.6737,38.5137 17.5,37.5C 18.3358,32.1634 17.0024,31.3301 13.5,35C 15.3731,35.9529 15.7065,37.1196 14.5,38.5C 13.5084,38.6716 12.8417,38.3382 12.5,37.5C 12.7711,36.4481 12.9378,35.1147 13,33.5C 13.7504,32.8742 14.5838,32.3742 15.5,32C 14.7476,31.3292 14.4142,30.4959 14.5,29.5C 14.5835,27.2635 14.2502,24.9302 13.5,22.5C 15.1644,23.9488 15.9977,25.9488 16,28.5C 16.2724,23.4512 16.7724,18.4512 17.5,13.5C 18.1174,13.3893 18.6174,13.056 19,12.5C 19.765,14.0657 19.5983,15.3991 18.5,16.5 Z"/></g>
<g><path style="opacity:1" fill="#873b14" d="M 27.5,32.5 C 28.1667,32.8333 28.8333,33.1667 29.5,33.5C 29.8333,33.5 30.1667,33.5 30.5,33.5C 31.5,33.8333 32.1667,34.5 32.5,35.5C 29.7628,35.5987 27.0961,35.2653 24.5,34.5C 24.5,34.1667 24.5,33.8333 24.5,33.5C 25.209,32.596 26.209,32.2627 27.5,32.5 Z"/></g>
<g><path style="opacity:1" fill="#86431b" d="M 38.5,27.5 C 39.4782,29.5315 40.9782,31.1982 43,32.5C 43.3418,30.3808 44.1751,30.0474 45.5,31.5C 46.4345,32.5676 46.7678,33.901 46.5,35.5C 45.7321,34.7375 45.2321,33.7375 45,32.5C 44.7645,34.1193 43.9311,35.1193 42.5,35.5C 42.1667,35.5 41.8333,35.5 41.5,35.5C 39.7809,34.9779 38.4475,33.9779 37.5,32.5C 38.1098,31.609 38.4431,30.609 38.5,29.5C 38.5,28.8333 38.5,28.1667 38.5,27.5 Z"/></g>
<g><path style="opacity:1" fill="#742c07" d="M 46.5,35.5 C 46.7845,37.4147 46.4511,39.0813 45.5,40.5C 45.631,39.7611 45.4643,39.0944 45,38.5C 44.6667,39.5 44.3333,40.5 44,41.5C 43.8019,39.6183 43.3019,37.9516 42.5,36.5C 42.5,36.1667 42.5,35.8333 42.5,35.5C 43.9311,35.1193 44.7645,34.1193 45,32.5C 45.2321,33.7375 45.7321,34.7375 46.5,35.5 Z"/></g>
<g><path style="opacity:1" fill="#f4d294" d="M 45.5,25.5 C 48.5177,26.855 49.851,29.1884 49.5,32.5C 49.5,33.8333 49.5,35.1667 49.5,36.5C 48.8826,36.6107 48.3826,36.944 48,37.5C 47.7216,36.5842 47.2216,35.9175 46.5,35.5C 46.7678,33.901 46.4345,32.5676 45.5,31.5C 45.5,30.8333 45.5,30.1667 45.5,29.5C 45.5,28.1667 45.5,26.8333 45.5,25.5 Z"/></g>
<g><path style="opacity:0.247" fill="#fd1104" d="M 61.5,22.5 C 63.3868,23.7679 64.3868,25.6013 64.5,28C 62.9228,30.7362 61.5895,33.5696 60.5,36.5C 59.5,36.5 58.5,36.5 57.5,36.5C 57.7373,37.791 57.404,38.791 56.5,39.5C 56.5,38.1667 56.5,36.8333 56.5,35.5C 58.5,34.8333 59.8333,33.5 60.5,31.5C 64.1509,29.3636 64.4843,26.6969 61.5,23.5C 61.5,23.1667 61.5,22.8333 61.5,22.5 Z"/></g>
<g><path style="opacity:1" fill="#88310a" d="M 17.5,37.5 C 16.779,39.3818 15.779,39.7152 14.5,38.5C 15.7065,37.1196 15.3731,35.9529 13.5,35C 17.0024,31.3301 18.3358,32.1634 17.5,37.5 Z"/></g>
<g><path style="opacity:1" fill="#591a07" d="M 51.5,18.5 C 52.4511,19.9187 52.7845,21.5853 52.5,23.5C 52.0535,26.0101 52.7202,28.0101 54.5,29.5C 54.2587,31.8863 54.9254,33.8863 56.5,35.5C 55.8386,36.7175 55.1719,38.0508 54.5,39.5C 53.4174,36.8619 52.0841,34.5286 50.5,32.5C 50.5,32.1667 50.5,31.8333 50.5,31.5C 51.3764,31.6309 52.0431,31.2975 52.5,30.5C 51.5672,26.5705 51.2338,22.5705 51.5,18.5 Z"/></g>
<g><path style="opacity:1" fill="#5f220b" d="M 37.5,32.5 C 38.4475,33.9779 39.7809,34.9779 41.5,35.5C 39.4418,36.9331 37.1085,37.5997 34.5,37.5C 33.9033,37.2648 33.5699,36.7648 33.5,36C 34.6449,34.5979 35.9783,33.4312 37.5,32.5 Z"/></g>
<g><path style="opacity:0.152" fill="#f00d03" d="M 49.5,32.5 C 49.8333,32.5 50.1667,32.5 50.5,32.5C 52.0841,34.5286 53.4174,36.8619 54.5,39.5C 55.1719,38.0508 55.8386,36.7175 56.5,35.5C 56.5,36.8333 56.5,38.1667 56.5,39.5C 54.7697,40.9118 53.2697,40.5785 52,38.5C 51.7996,40.3197 50.9663,41.653 49.5,42.5C 49.1667,42.5 48.8333,42.5 48.5,42.5C 49.3414,40.6208 49.6747,38.6208 49.5,36.5C 49.5,35.1667 49.5,33.8333 49.5,32.5 Z"/></g>
<g><path style="opacity:1" fill="#5b1a05" d="M 24.5,34.5 C 27.0961,35.2653 29.7628,35.5987 32.5,35.5C 32.5,36.1667 32.5,36.8333 32.5,37.5C 30.4352,37.4828 28.4352,37.1495 26.5,36.5C 25.4138,36.62 24.7472,37.2867 24.5,38.5C 24.8457,39.8492 25.179,41.1825 25.5,42.5C 23.9735,41.5081 23.3068,40.0081 23.5,38C 23.5143,36.6153 23.8476,35.4486 24.5,34.5 Z"/></g>
<g><path style="opacity:1" fill="#47141a" d="M 26.5,36.5 C 28.4352,37.1495 30.4352,37.4828 32.5,37.5C 32.5,38.8333 33.1667,39.5 34.5,39.5C 35.5,39.5 36.5,39.5 37.5,39.5C 37.5,39.8333 37.5,40.1667 37.5,40.5C 34.9407,40.1984 32.6074,40.5318 30.5,41.5C 30.1667,41.5 29.8333,41.5 29.5,41.5C 28.5272,39.8506 27.5272,38.184 26.5,36.5 Z"/></g>
<g><path style="opacity:1" fill="#390703" d="M 41.5,35.5 C 41.8333,35.5 42.1667,35.5 42.5,35.5C 42.5,35.8333 42.5,36.1667 42.5,36.5C 42.5,37.1667 42.5,37.8333 42.5,38.5C 40.8828,39.038 39.2161,39.3713 37.5,39.5C 36.5,39.5 35.5,39.5 34.5,39.5C 34.5,38.8333 34.5,38.1667 34.5,37.5C 37.1085,37.5997 39.4418,36.9331 41.5,35.5 Z"/></g>
<g><path style="opacity:0.422" fill="#f90f03" d="M 6.5,29.5 C 7.16667,29.8333 7.83333,30.1667 8.5,30.5C 8.83333,31.5 9.5,32.1667 10.5,32.5C 10.4021,34.5529 11.0687,36.2196 12.5,37.5C 12.8417,38.3382 13.5084,38.6716 14.5,38.5C 15.779,39.7152 16.779,39.3818 17.5,37.5C 18.6737,38.5137 19.3404,39.847 19.5,41.5C 20.2299,42.7124 21.2299,43.7124 22.5,44.5C 19.7448,48.7275 21.0782,51.0609 26.5,51.5C 26.8417,52.3382 27.5084,52.6716 28.5,52.5C 28.5,52.8333 28.5,53.1667 28.5,53.5C 24.5893,53.2532 21.256,51.7532 18.5,49C 19.1667,47.6667 19.8333,46.3333 20.5,45C 18.9632,43.8904 18.2965,42.3904 18.5,40.5C 16.0108,40.7022 13.6775,40.2022 11.5,39C 10.1061,35.6204 8.43948,32.4537 6.5,29.5 Z"/></g>
<g><path style="opacity:1" fill="#130301" d="M 26.5,36.5 C 27.5272,38.184 28.5272,39.8506 29.5,41.5C 28.8999,42.9002 27.8999,43.9002 26.5,44.5C 26.6716,43.5084 26.3382,42.8417 25.5,42.5C 25.179,41.1825 24.8457,39.8492 24.5,38.5C 24.7472,37.2867 25.4138,36.62 26.5,36.5 Z"/></g>
<g><path style="opacity:1" fill="#0f0302" d="M 42.5,38.5 C 42.5,39.5 42.5,40.5 42.5,41.5C 40.9522,43.9224 39.2855,43.9224 37.5,41.5C 37.5,41.1667 37.5,40.8333 37.5,40.5C 37.5,40.1667 37.5,39.8333 37.5,39.5C 39.2161,39.3713 40.8828,39.038 42.5,38.5 Z"/></g>
<g><path style="opacity:1" fill="#621e04" d="M 42.5,36.5 C 43.3019,37.9516 43.8019,39.6183 44,41.5C 44.3333,40.5 44.6667,39.5 45,38.5C 45.4643,39.0944 45.631,39.7611 45.5,40.5C 45.3713,42.2161 45.038,43.8828 44.5,45.5C 43.8333,45.5 43.5,45.8333 43.5,46.5C 43.1667,46.5 42.8333,46.5 42.5,46.5C 42.5,44.8333 42.5,43.1667 42.5,41.5C 42.5,40.5 42.5,39.5 42.5,38.5C 42.5,37.8333 42.5,37.1667 42.5,36.5 Z"/></g>
<g><path style="opacity:1" fill="#8e370a" d="M 21.5,33.5 C 22.5,33.5 23.5,33.5 24.5,33.5C 24.5,33.8333 24.5,34.1667 24.5,34.5C 23.8476,35.4486 23.5143,36.6153 23.5,38C 23.3068,40.0081 23.9735,41.5081 25.5,42.5C 26.3382,42.8417 26.6716,43.5084 26.5,44.5C 27.9002,45.1001 28.9002,46.1001 29.5,47.5C 29.1667,47.5 28.8333,47.5 28.5,47.5C 28.1583,46.6618 27.4916,46.3284 26.5,46.5C 25.8333,46.5 25.1667,46.5 24.5,46.5C 23.2134,43.5939 22.2134,40.5939 21.5,37.5C 21.5,36.1667 21.5,34.8333 21.5,33.5 Z"/></g>
<g><path style="opacity:1" fill="#d57e2e" d="M 46.5,35.5 C 47.2216,35.9175 47.7216,36.5842 48,37.5C 48.3826,36.944 48.8826,36.6107 49.5,36.5C 49.6747,38.6208 49.3414,40.6208 48.5,42.5C 48.5,43.1667 48.5,43.8333 48.5,44.5C 47.1667,44.8333 45.8333,45.1667 44.5,45.5C 45.038,43.8828 45.3713,42.2161 45.5,40.5C 46.4511,39.0813 46.7845,37.4147 46.5,35.5 Z"/></g>
<g><path style="opacity:1" fill="#e095b6" d="M 37.5,40.5 C 37.5,40.8333 37.5,41.1667 37.5,41.5C 35.6208,42.3414 33.6208,42.6747 31.5,42.5C 30.8333,42.5 30.5,42.1667 30.5,41.5C 32.6074,40.5318 34.9407,40.1984 37.5,40.5 Z"/></g>
<g><path style="opacity:1" fill="#4e1e11" d="M 37.5,41.5 C 39.2855,43.9224 40.9522,43.9224 42.5,41.5C 42.5,43.1667 42.5,44.8333 42.5,46.5C 41.8333,46.1667 41.1667,45.8333 40.5,45.5C 37.9471,44.7451 35.2804,44.0784 32.5,43.5C 31.8333,43.5 31.5,43.1667 31.5,42.5C 33.6208,42.6747 35.6208,42.3414 37.5,41.5 Z"/></g>
<g><path style="opacity:1" fill="#7a2f0b" d="M 29.5,41.5 C 29.8333,41.5 30.1667,41.5 30.5,41.5C 30.5,42.1667 30.8333,42.5 31.5,42.5C 31.5,43.1667 31.8333,43.5 32.5,43.5C 31.962,45.1172 31.6287,46.7839 31.5,48.5C 30.5084,48.6716 29.8417,48.3382 29.5,47.5C 28.9002,46.1001 27.9002,45.1001 26.5,44.5C 27.8999,43.9002 28.8999,42.9002 29.5,41.5 Z"/></g>
<g><path style="opacity:0.393" fill="#fa0f05" d="M 48.5,42.5 C 48.8333,42.5 49.1667,42.5 49.5,42.5C 53.5092,49.8624 51.1758,53.529 42.5,53.5C 42.1667,53.5 41.8333,53.5 41.5,53.5C 43.2608,52.6873 44.9275,51.6873 46.5,50.5C 50.8494,49.655 51.516,47.655 48.5,44.5C 48.5,43.8333 48.5,43.1667 48.5,42.5 Z"/></g>
<g><path style="opacity:1" fill="#6b2607" d="M 32.5,43.5 C 35.2804,44.0784 37.9471,44.7451 40.5,45.5C 38.5695,45.7706 37.2362,46.7706 36.5,48.5C 36.1788,46.9519 35.1788,46.2852 33.5,46.5C 33.5,47.5 33.5,48.5 33.5,49.5C 32.5084,49.6716 31.8417,49.3382 31.5,48.5C 31.6287,46.7839 31.962,45.1172 32.5,43.5 Z"/></g>
<g><path style="opacity:1" fill="#752109" d="M 40.5,45.5 C 41.1667,45.8333 41.8333,46.1667 42.5,46.5C 42.1583,47.3382 41.4916,47.6716 40.5,47.5C 37.8529,49.4487 37.8529,51.4487 40.5,53.5C 39.5,53.5 38.5,53.5 37.5,53.5C 37.5,52.8333 37.5,52.1667 37.5,51.5C 37.4431,50.391 37.1098,49.391 36.5,48.5C 37.2362,46.7706 38.5695,45.7706 40.5,45.5 Z"/></g>
<g><path style="opacity:1" fill="#e09769" d="M 48.5,44.5 C 51.516,47.655 50.8494,49.655 46.5,50.5C 46.6716,49.5084 46.3382,48.8417 45.5,48.5C 45.5,47.1667 44.8333,46.5 43.5,46.5C 43.5,45.8333 43.8333,45.5 44.5,45.5C 45.8333,45.1667 47.1667,44.8333 48.5,44.5 Z"/></g>
<g><path style="opacity:1" fill="#5c2007" d="M 36.5,48.5 C 37.1098,49.391 37.4431,50.391 37.5,51.5C 36.7326,52.172 36.0659,53.0053 35.5,54C 35.7284,54.3988 36.0618,54.5654 36.5,54.5C 35.8333,55.8333 35.1667,55.8333 34.5,54.5C 34.6775,53.3052 35.0109,52.1385 35.5,51C 35.1639,49.9701 34.4972,49.4701 33.5,49.5C 33.5,48.5 33.5,47.5 33.5,46.5C 35.1788,46.2852 36.1788,46.9519 36.5,48.5 Z"/></g>
<g><path style="opacity:1" fill="#f8b9b2" d="M 24.5,46.5 C 25.1667,46.5 25.8333,46.5 26.5,46.5C 26.5,47.8333 26.5,49.1667 26.5,50.5C 24.8958,49.713 24.2291,48.3797 24.5,46.5 Z"/></g>
<g><path style="opacity:1" fill="#ed6962" d="M 26.5,46.5 C 27.4916,46.3284 28.1583,46.6618 28.5,47.5C 28.8222,49.4752 28.8222,51.1418 28.5,52.5C 27.5084,52.6716 26.8417,52.3382 26.5,51.5C 26.5,51.1667 26.5,50.8333 26.5,50.5C 26.5,49.1667 26.5,47.8333 26.5,46.5 Z"/></g>
<g><path style="opacity:1" fill="#e72821" d="M 42.5,46.5 C 42.8333,46.5 43.1667,46.5 43.5,46.5C 44.8333,46.5 45.5,47.1667 45.5,48.5C 42.536,52.5462 40.8693,52.2129 40.5,47.5C 41.4916,47.6716 42.1583,47.3382 42.5,46.5 Z"/></g>
<g><path style="opacity:1" fill="#da7b35" d="M 21.5,37.5 C 22.2134,40.5939 23.2134,43.5939 24.5,46.5C 24.2291,48.3797 24.8958,49.713 26.5,50.5C 26.5,50.8333 26.5,51.1667 26.5,51.5C 21.0782,51.0609 19.7448,48.7275 22.5,44.5C 21.2299,43.7124 20.2299,42.7124 19.5,41.5C 20.1667,40.1667 20.8333,38.8333 21.5,37.5 Z"/></g>
<g><path style="opacity:1" fill="#8a1b06" d="M 40.5,47.5 C 40.8693,52.2129 42.536,52.5462 45.5,48.5C 46.3382,48.8417 46.6716,49.5084 46.5,50.5C 44.9275,51.6873 43.2608,52.6873 41.5,53.5C 41.1667,53.5 40.8333,53.5 40.5,53.5C 37.8529,51.4487 37.8529,49.4487 40.5,47.5 Z"/></g>
<g><path style="opacity:1" fill="#d21512" d="M 28.5,47.5 C 28.8333,47.5 29.1667,47.5 29.5,47.5C 29.8417,48.3382 30.5084,48.6716 31.5,48.5C 31.8417,49.3382 32.5084,49.6716 33.5,49.5C 34.4972,49.4701 35.1639,49.9701 35.5,51C 35.0109,52.1385 34.6775,53.3052 34.5,54.5C 34.1667,54.5 33.8333,54.5 33.5,54.5C 32.0813,53.5489 30.4147,53.2155 28.5,53.5C 28.5,53.1667 28.5,52.8333 28.5,52.5C 28.8222,51.1418 28.8222,49.4752 28.5,47.5 Z"/></g>
<g><path style="opacity:0.474" fill="#fe0302" d="M 28.5,53.5 C 30.4147,53.2155 32.0813,53.5489 33.5,54.5C 32.438,56.0992 32.438,57.7659 33.5,59.5C 33.5,59.8333 33.5,60.1667 33.5,60.5C 32.7784,60.0825 32.2784,59.4158 32,58.5C 31.6905,59.7659 31.1905,60.9326 30.5,62C 31.6667,63.1667 32.8333,64.3333 34,65.5C 34.4922,64.451 34.3256,63.451 33.5,62.5C 34.325,61.6143 35.325,61.281 36.5,61.5C 36.67,62.8221 36.3366,63.9887 35.5,65C 36.0944,65.4643 36.7611,65.631 37.5,65.5C 37.1344,66.6946 36.301,67.3613 35,67.5C 29.1868,64.9201 28.0201,60.9201 31.5,55.5C 30.3984,54.8243 29.3984,54.1577 28.5,53.5 Z"/></g>
<g><path style="opacity:1" fill="#c47713" d="M 37.5,51.5 C 37.5,52.1667 37.5,52.8333 37.5,53.5C 37.5,53.8333 37.5,54.1667 37.5,54.5C 37.1667,54.5 36.8333,54.5 36.5,54.5C 36.0618,54.5654 35.7284,54.3988 35.5,54C 36.0659,53.0053 36.7326,52.172 37.5,51.5 Z"/></g>
<g><path style="opacity:0.487" fill="#fe0101" d="M 37.5,54.5 C 37.5,54.1667 37.5,53.8333 37.5,53.5C 38.5,53.5 39.5,53.5 40.5,53.5C 40.8333,53.5 41.1667,53.5 41.5,53.5C 41.8333,53.5 42.1667,53.5 42.5,53.5C 41.7375,54.2679 40.7375,54.7679 39.5,55C 40.883,57.694 41.383,60.5274 41,63.5C 40.3292,64.2524 39.4959,64.5858 38.5,64.5C 39.1408,63.5178 39.8075,62.5178 40.5,61.5C 39.6701,58.9836 38.6701,56.6502 37.5,54.5 Z"/></g>
<g><path style="opacity:1" fill="#f6110e" d="M 33.5,54.5 C 33.8333,54.5 34.1667,54.5 34.5,54.5C 35.1667,55.8333 35.8333,55.8333 36.5,54.5C 36.8333,54.5 37.1667,54.5 37.5,54.5C 38.6701,56.6502 39.6701,58.9836 40.5,61.5C 39.8075,62.5178 39.1408,63.5178 38.5,64.5C 38.5,65.1667 38.1667,65.5 37.5,65.5C 36.7611,65.631 36.0944,65.4643 35.5,65C 36.3366,63.9887 36.67,62.8221 36.5,61.5C 35.325,61.281 34.325,61.6143 33.5,62.5C 34.3256,63.451 34.4922,64.451 34,65.5C 32.8333,64.3333 31.6667,63.1667 30.5,62C 31.1905,60.9326 31.6905,59.7659 32,58.5C 32.2784,59.4158 32.7784,60.0825 33.5,60.5C 37.5841,61.0547 38.2508,60.0547 35.5,57.5C 34.8182,58.2427 34.1515,58.9094 33.5,59.5C 32.438,57.7659 32.438,56.0992 33.5,54.5 Z"/></g>
<g><path style="opacity:1" fill="#ff9692" d="M 33.5,60.5 C 33.5,60.1667 33.5,59.8333 33.5,59.5C 34.1515,58.9094 34.8182,58.2427 35.5,57.5C 38.2508,60.0547 37.5841,61.0547 33.5,60.5 Z"/></g>
</svg>
